<?xml version="1.0" encoding="UTF-8" standalone="no"?>
<svg width="28px" height="28px" viewBox="0 0 28 28" version="1.1" xmlns="http://www.w3.org/2000/svg" xmlns:xlink="http://www.w3.org/1999/xlink" xmlns:sketch="http://www.bohemiancoding.com/sketch/ns">
    <!-- Generator: Sketch 3.0.4 (8054) - http://www.bohemiancoding.com/sketch -->
    <title>dropbox</title>
    <desc>Created with Sketch.</desc>
    <defs></defs>
    <g id="Page-1" stroke="none" stroke-width="1" fill="none" fill-rule="evenodd" sketch:type="MSPage">
        <g id="dropbox" sketch:type="MSLayerGroup" fill="#3D3D3D">
            <path d="M14.0169037,16.9170421 L8.23853333,21.8765824 L5.76592593,20.2073103 L5.76592593,22.0789119 L14.0169037,27.197977 L22.2677778,22.0789119 L22.2677778,20.2073103 L19.7951704,21.8765824 L14.0169037,16.9170421 Z M27.9953333,5.82732567 L19.7616741,0.26594636 L13.9998963,5.24061303 L22.3017926,10.5436628 L27.9953333,5.82732567 Z M13.9998963,15.8464981 L19.7616741,20.8213793 L27.9953333,15.2601073 L22.3017926,10.5436628 L13.9998963,15.8464981 Z M0.00487407407,15.2601073 L8.23853333,20.8213793 L13.9998963,15.8464981 L5.698,10.5436628 L0.00487407407,15.2601073 Z M8.23853333,0.26594636 L0.00487407407,5.82732567 L5.698,10.5436628 L13.9998963,5.24061303 L8.23853333,0.26594636 Z" id="Shape" sketch:type="MSShapeGroup"></path>
        </g>
    </g>
</svg>