<?xml version="1.0" encoding="UTF-8" standalone="no"?>
<svg width="28px" height="28px" viewBox="0 0 28 28" version="1.1" xmlns="http://www.w3.org/2000/svg" xmlns:xlink="http://www.w3.org/1999/xlink" xmlns:sketch="http://www.bohemiancoding.com/sketch/ns">
    <!-- Generator: Sketch 3.0.4 (8054) - http://www.bohemiancoding.com/sketch -->
    <title>facebook</title>
    <desc>Created with Sketch.</desc>
    <defs></defs>
    <g id="Page-1" stroke="none" stroke-width="1" fill="none" fill-rule="evenodd" sketch:type="MSPage">
        <g id="facebook" sketch:type="MSLayerGroup" transform="translate(7.000000, 0.000000)" fill="#3D3D3D">
            <path d="M-0.0297777778,9.28312644 L2.97022222,9.28312644 L2.97022222,7.96905747 L2.97022222,6.68170115 L2.97022222,6.46703448 C2.97022222,5.22795402 3.00333333,3.31301149 3.93666667,2.12767816 C4.92,0.872291188 6.27,0.0196321839 8.59233333,0.0196321839 C12.3754444,0.0196321839 13.97,0.539831418 13.97,0.539831418 L13.22,4.83112644 C13.22,4.83112644 11.97,4.48236015 10.8033333,4.48236015 C9.63666667,4.48236015 8.59233333,4.884659 8.59233333,6.01109579 L8.59233333,6.46703448 L8.59233333,7.96905747 L8.59233333,9.28312644 L13.3754444,9.28312644 L13.0421111,13.4723985 L8.59233333,13.4723985 L8.59233333,28.0303602 L2.97011111,28.0303602 L2.97011111,13.4723985 L-0.0298888889,13.4723985 L-0.0297777778,9.28312644 L-0.0297777778,9.28312644 Z" id="Shape" sketch:type="MSShapeGroup"></path>
        </g>
    </g>
</svg>