<?xml version="1.0" encoding="UTF-8" standalone="no"?>
<svg width="28px" height="28px" viewBox="0 0 28 28" version="1.1" xmlns="http://www.w3.org/2000/svg" xmlns:xlink="http://www.w3.org/1999/xlink" xmlns:sketch="http://www.bohemiancoding.com/sketch/ns">
    <!-- Generator: Sketch 3.0.4 (8054) - http://www.bohemiancoding.com/sketch -->
    <title>googleplus</title>
    <desc>Created with Sketch.</desc>
    <defs></defs>
    <g id="Page-1" stroke="none" stroke-width="1" fill="none" fill-rule="evenodd" sketch:type="MSPage">
        <g id="googleplus" sketch:type="MSLayerGroup" transform="translate(0.000000, 2.000000)" fill="#3D3D3D">
            <path d="M10.1913194,11.2043333 C10.1913194,9.6893913 13.5641635,9.25001449 13.5641635,5.69005797 C13.5641635,3.55404348 13.3647947,2.26634783 11.663076,1.50892754 C11.663076,0.978550725 14.6677757,1.32702899 14.6677757,0.337188406 L8.08614068,0.337188406 C8.08614068,0.337188406 1.42247909,0.498492754 1.42247909,6.07353623 C1.42247909,11.6484783 7.24801141,11.0021449 7.24801141,11.0021449 L7.24801141,12.4163478 C7.24801141,12.9867971 8.02977947,12.795058 8.12689734,13.9511739 C7.73329278,13.9511739 0.0325437262,13.7495942 0.0325437262,18.7988261 C0.0325437262,23.848058 6.81878327,23.6064058 6.81878327,23.6064058 C6.81878327,23.6064058 14.6678783,23.9599565 14.6678783,17.6882609 C14.6677757,13.9312899 10.1913194,12.7193768 10.1913194,11.2043333 L10.1913194,11.2043333 Z M4.50520152,6.39695652 C3.88912928,4.15817391 4.70118251,1.99081159 6.31923194,1.55630435 C7.93728137,1.12118841 9.7483346,2.58357971 10.3644068,4.82236232 C10.9808897,7.06165217 10.1689392,9.22931884 8.55078707,9.66443478 C6.93253232,10.0988406 5.12158175,8.63604348 4.50520152,6.39695652 L4.50520152,6.39695652 Z M7.87558175,21.9936667 C5.15895057,22.1757681 2.84814068,20.736 2.71426996,18.7781304 C2.57968061,16.8199565 4.67295057,15.0854783 7.38958175,14.9037826 C10.1068289,14.7218841 12.4182548,16.1613478 12.5527414,18.118913 C12.6867148,20.0776957 10.5927262,21.811971 7.87558175,21.9936667 L7.87558175,21.9936667 Z M27.0151939,4.86344928 L27.0151939,6.1965942 L22.4336122,6.1965942 L22.4336122,10.7195072 L21.0844335,10.7195072 L21.0844335,6.1965942 L16.5072662,6.1965942 L16.5072662,4.86344928 L21.0844335,4.86344928 L21.0844335,0.335666667 L22.4336122,0.335666667 L22.4336122,4.86344928 L27.0151939,4.86344928 Z" id="Shape" sketch:type="MSShapeGroup"></path>
        </g>
    </g>
</svg>