<?xml version="1.0" encoding="UTF-8" standalone="no"?>
<svg width="28px" height="28px" viewBox="0 0 28 28" version="1.1" xmlns="http://www.w3.org/2000/svg" xmlns:xlink="http://www.w3.org/1999/xlink" xmlns:sketch="http://www.bohemiancoding.com/sketch/ns">
    <!-- Generator: Sketch 3.0.4 (8054) - http://www.bohemiancoding.com/sketch -->
    <title>linkedin</title>
    <desc>Created with Sketch.</desc>
    <defs></defs>
    <g id="Page-1" stroke="none" stroke-width="1" fill="none" fill-rule="evenodd" sketch:type="MSPage">
        <g id="linkedin" sketch:type="MSLayerGroup" transform="translate(2.000000, 2.000000)" fill="#3D3D3D">
            <path d="M7.93105221,22.0297681 L13.0356145,22.0297681 L13.0356145,13.6974348 C13.0356145,13.2514638 13.0688193,12.8057971 13.2036225,12.4875507 C13.5725301,11.5957101 14.4127791,10.6726232 15.8226265,10.6726232 C17.6699839,10.6726232 18.4088434,12.0411739 18.4088434,14.0475362 L18.4088434,22.0297681 L23.512988,22.0297681 L23.512988,13.4742464 C23.512988,8.89157971 20.9948514,6.75891304 17.6361526,6.75891304 C14.8825542,6.75891304 13.6733976,8.25427536 13.0022008,9.27272464 L13.0356145,9.27272464 L13.0356145,7.10911594 L7.93105221,7.10911594 C7.99798394,8.50871014 7.93105221,22.0297681 7.93105221,22.0297681 L7.93105221,22.0297681 L7.93105221,22.0297681 Z M5.10624096,22.0297681 L5.10624096,7.10911594 L0.00209638554,7.10911594 L0.00209638554,22.0297681 L5.10624096,22.0297681 L5.10624096,22.0297681 Z M2.55437751,5.07211594 C4.33396787,5.07211594 5.44215261,3.92563768 5.44215261,2.49388406 C5.40884337,1.03017391 4.33396787,-0.0842463768 2.58810442,-0.0842463768 C0.841718876,-0.0842463768 -0.299670683,1.03017391 -0.299670683,2.49388406 C-0.299670683,3.92563768 0.807991968,5.07211594 2.52117269,5.07211594 L2.55437751,5.07211594 L2.55437751,5.07211594 Z" id="Shape" sketch:type="MSShapeGroup"></path>
        </g>
    </g>
</svg>