<?xml version="1.0" encoding="UTF-8" standalone="no"?>
<svg width="28px" height="28px" viewBox="0 0 28 28" version="1.1" xmlns="http://www.w3.org/2000/svg" xmlns:xlink="http://www.w3.org/1999/xlink" xmlns:sketch="http://www.bohemiancoding.com/sketch/ns">
    <!-- Generator: Sketch 3.0.4 (8054) - http://www.bohemiancoding.com/sketch -->
    <title>paypal</title>
    <desc>Created with Sketch.</desc>
    <defs></defs>
    <g id="Page-1" stroke="none" stroke-width="1" fill="none" fill-rule="evenodd" sketch:type="MSPage">
        <g id="paypal" sketch:type="MSLayerGroup" fill="#3D3D3D">
            <path d="M18.2564179,12.1766029 C17.0118806,13.0729118 15.2873731,13.5223529 13.047791,13.5223529 L12.0355075,13.5223529 C11.143791,13.5223529 10.5808657,12.82575 10.7773881,11.9695882 L12.0198358,6.69333824 C12.2089403,5.84386765 13.0989851,5.13820588 13.9913284,5.14654412 L15.3417015,5.13820588 C16.9197313,5.13820588 18.1195522,5.40461765 18.9288358,5.93363235 C19.7261045,6.44885294 20.1313731,7.26208824 20.1170597,8.35563235 C20.1406716,10.0022794 19.5070149,11.2773088 18.2564179,12.1766029 M27.169403,4.04476471 C26.6563134,3.05858824 25.8875672,2.25780882 24.9061045,1.65344118 C23.8880746,1.03404412 22.7030896,0.607558824 21.3229403,0.350102941 C19.9340149,0.105 18.312,-0.0152352941 16.4506269,-0.0319117647 L7.83373134,-0.0259411765 C6.93825373,-0.0152352941 6.06116418,0.676735294 5.85408955,1.52497059 L0.0442985075,26.4129559 C-0.155985075,27.2639706 0.403492537,27.9677794 1.29520896,27.9677794 L5.42332836,27.9677794 C6.31577612,27.9677794 7.20028358,27.2826029 7.40056716,26.4129559 L8.82344776,20.3724706 C9.0131791,19.5285588 9.89549254,18.8298971 10.7902388,18.8298971 L11.97,18.8298971 C17.0186716,18.8244412 20.9338657,17.8067647 23.7482836,15.7703824 C26.558,13.7375 27.9631194,11.0433235 27.9563284,7.71132353 C27.9630149,6.24739706 27.706209,5.02280882 27.169403,4.04476471" id="Shape" sketch:type="MSShapeGroup"></path>
        </g>
    </g>
</svg>