<?xml version="1.0" encoding="UTF-8" standalone="no"?>
<svg width="28px" height="28px" viewBox="0 0 28 28" version="1.1" xmlns="http://www.w3.org/2000/svg" xmlns:xlink="http://www.w3.org/1999/xlink" xmlns:sketch="http://www.bohemiancoding.com/sketch/ns">
    <!-- Generator: Sketch 3.0.4 (8054) - http://www.bohemiancoding.com/sketch -->
    <title>phone</title>
    <desc>Created with Sketch.</desc>
    <defs></defs>
    <g id="Page-1" stroke="none" stroke-width="1" fill="none" fill-rule="evenodd" sketch:type="MSPage">
        <g id="phone" sketch:type="MSLayerGroup" transform="translate(1.000000, 0.000000)" fill="#3D3D3D">
            <path d="M19.1695833,27.8201538 C18.1014167,27.5401538 17.1275,26.9456923 15.0290833,25.3464615 C12.9133333,23.7267692 9.53225,20.9956923 6.90408333,17.8973846 C4.27483333,14.7969231 2.41583333,11.3658462 1.42241667,9.26369231 C0.42575,7.15723077 0.252416667,6.30969231 0.231833333,5.36738462 C0.216666667,4.48753846 0.320666667,3.44507692 1.0465,2.44676923 C1.72683333,1.50446154 2.94016667,0.637538462 3.822,0.268153846 C4.8035,-0.150769231 5.45675,0.00646153846 5.93341667,0.177692308 C6.3895,0.345692308 6.73291667,0.533076923 7.2345,0.995076923 C7.70358333,1.43230769 8.35033333,2.13661538 8.88008333,2.87430769 C9.41741667,3.61092308 9.83775,4.38092308 10.1248333,5.03784615 C10.4173333,5.70123077 10.5830833,6.28276923 10.6166667,6.89984615 C10.6459167,7.51261538 10.5343333,8.27723077 9.85075,8.85230769 C9.29933333,9.31430769 8.33191667,9.65353846 7.91808333,9.88830769 C7.83683333,9.93461538 7.79025,9.96692308 7.748,10.0078462 C7.72416667,10.1370769 7.74366667,10.3535385 7.95491667,10.8553846 C8.41641667,11.9398462 9.55391667,13.8492308 11.00775,15.4193846 C12.4464167,16.9906154 14.2068333,18.2247692 15.3356667,19.0076923 C16.2196667,19.614 16.63675,19.8950769 16.8805,20.0318462 L17.0733333,20.1223077 L17.2401667,19.9435385 C17.32575,19.8412308 17.44925,19.6969231 17.6464167,19.4729231 C17.98875,19.0927692 18.6723333,18.3378462 19.6375833,18.1601538 C20.605,17.9943077 21.6699167,18.424 22.5625833,19.0443077 C23.4790833,19.684 24.3186667,20.5983077 24.9459167,21.5621538 C25.5460833,22.5001538 26.0790833,23.716 25.55475,24.948 C25.0661667,26.0916923 23.725,27.0792308 22.5799167,27.5595385 C21.36875,28.0753846 20.2366667,28.1033846 19.1695833,27.8201538 L19.1695833,27.8201538 Z" id="Shape" sketch:type="MSShapeGroup"></path>
        </g>
    </g>
</svg>