<?xml version="1.0" encoding="UTF-8" standalone="no"?>
<svg width="28px" height="28px" viewBox="0 0 28 28" version="1.1" xmlns="http://www.w3.org/2000/svg" xmlns:xlink="http://www.w3.org/1999/xlink" xmlns:sketch="http://www.bohemiancoding.com/sketch/ns">
    <!-- Generator: Sketch 3.0.4 (8054) - http://www.bohemiancoding.com/sketch -->
    <title>rss</title>
    <desc>Created with Sketch.</desc>
    <defs></defs>
    <g id="Page-1" stroke="none" stroke-width="1" fill="none" fill-rule="evenodd" sketch:type="MSPage">
        <g id="rss" sketch:type="MSLayerGroup" transform="translate(3.000000, 2.000000)" fill="#3D3D3D">
            <path d="M0.439502008,4.24976812 C10.3882088,4.24976812 18.4821446,12.1564203 18.4821446,21.8748551 L22.7835261,21.8748551 C22.7835261,9.8522029 12.7598474,0.0706666667 0.439502008,0.0706666667 L0.439502008,4.24976812 L0.439502008,4.24976812 Z M0.433236948,11.6584058 C3.22515663,11.6584058 5.84875502,12.7184493 7.82099598,14.6436522 C9.79626506,16.572 10.8838795,19.1388696 10.8838795,21.8704928 L15.1851566,21.8704928 C15.1851566,13.9352319 8.56737349,7.4792029 0.433236948,7.4792029 L0.433236948,11.6584058 L0.433236948,11.6584058 Z M6.38828112,18.9559565 C6.38828112,20.5545942 5.05403213,21.85 3.40893173,21.85 C1.76404016,21.85 0.429791165,20.5543913 0.429791165,18.9559565 C0.429791165,17.356913 1.76404016,16.0608986 3.40893173,16.0608986 C5.05403213,16.0608986 6.38828112,17.3572174 6.38828112,18.9559565 Z" id="Shape" sketch:type="MSShapeGroup"></path>
        </g>
    </g>
</svg>