<?xml version="1.0" encoding="UTF-8" standalone="no"?>
<svg width="28px" height="28px" viewBox="0 0 28 28" version="1.1" xmlns="http://www.w3.org/2000/svg" xmlns:xlink="http://www.w3.org/1999/xlink" xmlns:sketch="http://www.bohemiancoding.com/sketch/ns">
    <!-- Generator: Sketch 3.0.4 (8054) - http://www.bohemiancoding.com/sketch -->
    <title>twitter</title>
    <desc>Created with Sketch.</desc>
    <defs></defs>
    <g id="Page-1" stroke="none" stroke-width="1" fill="none" fill-rule="evenodd" sketch:type="MSPage">
        <g id="twitter" sketch:type="MSLayerGroup" transform="translate(0.000000, 3.000000)" fill="#3D3D3D">
            <path d="M27.0251566,2.74032184 C26.0316867,3.17619923 24.9640482,3.47078927 23.8437108,3.60327969 C24.9871446,2.92505747 25.8655663,1.85108046 26.279241,0.571233716 C25.2088916,1.19935632 24.0227349,1.6554023 22.7616506,1.9010728 C21.7513735,0.836 20.3115904,0.170544061 18.7183735,0.170544061 C15.659241,0.170544061 13.1790361,2.62424521 13.1790361,5.65081992 C13.1790361,6.08026054 13.2279398,6.49865134 13.3222771,6.89977011 C8.71839759,6.67115709 4.63684337,4.48940996 1.90485542,1.1736092 C1.42807229,1.98303448 1.15481928,2.92441379 1.15481928,3.92887356 C1.15481928,5.83029885 2.1326747,7.50761686 3.61908434,8.49051341 C2.71106024,8.46197701 1.85692771,8.21544828 1.11014458,7.80488889 C1.10960241,7.82784674 1.10960241,7.85069732 1.10960241,7.87386973 C1.10960241,10.5291494 3.01901205,12.744046 5.553,13.2478314 C5.08825301,13.3729195 4.59889157,13.4399693 4.0936988,13.4399693 C3.73673494,13.4399693 3.38974699,13.4056398 3.05143373,13.3417011 C3.75636145,15.5189425 5.80218072,17.1034636 8.226,17.1478774 C6.33025301,18.6176092 3.94178313,19.4936552 1.34642169,19.4936552 C0.899240964,19.4936552 0.458457831,19.4680153 0.0250481928,19.4169502 C2.47640964,20.9718621 5.38818072,21.879341 8.51638554,21.879341 C18.7053614,21.879341 24.2771205,13.5279387 24.2771205,6.28580843 C24.2771205,6.04829119 24.2716988,5.81195402 24.2612892,5.57679693 C25.3436747,4.8045977 26.2826024,3.83929502 27.0251566,2.74032184 L27.0251566,2.74032184 Z" id="Shape" sketch:type="MSShapeGroup"></path>
        </g>
    </g>
</svg>