<?xml version="1.0" encoding="UTF-8" standalone="no"?>
<svg width="28px" height="28px" viewBox="0 0 28 28" version="1.1" xmlns="http://www.w3.org/2000/svg" xmlns:xlink="http://www.w3.org/1999/xlink" xmlns:sketch="http://www.bohemiancoding.com/sketch/ns">
    <!-- Generator: Sketch 3.0.4 (8054) - http://www.bohemiancoding.com/sketch -->
    <title>youtube</title>
    <desc>Created with Sketch.</desc>
    <defs></defs>
    <g id="Page-1" stroke="none" stroke-width="1" fill="none" fill-rule="evenodd" sketch:type="MSPage">
        <g id="youtube" sketch:type="MSLayerGroup" transform="translate(3.000000, 0.000000)" fill="#3D3D3D">
            <path d="M5.52527711,17.2149275 L0.401606426,17.2149275 L0.401606426,18.7391014 L2.12877912,18.7391014 L2.12877912,27.715942 L3.79831325,27.715942 L3.79831325,18.7391014 L5.52527711,18.7391014 L5.52527711,17.2149275 L5.52527711,17.2149275 Z M8.25391968,25.8497826 C8.11493976,26.0191014 7.96207229,26.1581884 7.79573494,26.2667391 C7.62929317,26.3749855 7.49167068,26.4294638 7.38213655,26.4294638 C7.24315663,26.4294638 7.14249799,26.3888841 7.0804739,26.3064058 C7.0184498,26.224029 6.98733333,26.0914348 6.98733333,25.9073043 L6.98733333,19.9687681 L5.5051245,19.9687681 L5.5051245,26.4440725 C5.5051245,26.9051594 5.592,27.2513043 5.76585542,27.4817971 C5.93960643,27.7121884 6.19814458,27.8273333 6.54063454,27.8273333 C6.81880321,27.8273333 7.10553414,27.7449565 7.40082731,27.5806087 C7.69664257,27.4154493 7.98076305,27.1754203 8.25391968,26.8602174 L8.25391968,27.7151304 L9.73633735,27.7151304 L9.73633735,19.9685652 L8.25391968,19.9685652 L8.25391968,25.8497826 L8.25391968,25.8497826 Z M13.9977269,19.8716812 C13.7679036,19.8716812 13.5406908,19.9329565 13.3157751,20.0555072 C13.0912771,20.1793768 12.8793092,20.3586377 12.6795582,20.5944058 L12.6795582,17.2149275 L11.1826265,17.2149275 L11.1826265,27.7162464 L12.6795582,27.7162464 L12.6795582,27.1208406 C12.8742972,27.3566087 13.0855341,27.5312029 13.3123293,27.6447246 C13.5395422,27.7574348 13.7978715,27.8141449 14.0877349,27.8141449 C14.5268112,27.8141449 14.8630361,27.6683623 15.0949478,27.376087 C15.3270683,27.0836087 15.4431807,26.6624928 15.4431807,26.1113188 L15.4431807,21.8136232 C15.4431807,21.181087 15.3194458,20.6987971 15.0721847,20.3682754 C14.8250281,20.0373478 14.4667711,19.8716812 13.9977269,19.8716812 L13.9977269,19.8716812 Z M13.9173253,25.9007101 C13.9173253,26.1475362 13.8743052,26.3255797 13.788996,26.4344348 C13.7034779,26.5431884 13.570241,26.5974638 13.3890763,26.5974638 C13.2631486,26.5974638 13.1435904,26.569971 13.0304016,26.5142754 C12.917004,26.4587826 12.7999518,26.3678841 12.6795582,26.2415797 L12.6795582,21.4144203 C12.7803213,21.3077971 12.8819197,21.2291739 12.9853976,21.1782464 C13.088249,21.1277246 13.1927711,21.1021594 13.2984418,21.1021594 C13.4993414,21.1021594 13.6530442,21.1699275 13.7586104,21.3056667 C13.8648032,21.4412029 13.9174297,21.6393333 13.9174297,21.9004638 L13.9174297,25.9007101 L13.9173253,25.9007101 L13.9173253,25.9007101 Z M20.9218715,24.0245072 L20.9218715,22.0525362 C20.9218715,21.3172319 20.7397671,20.7538841 20.3758715,20.3615797 C20.0119759,19.9702899 19.4906185,19.7738841 18.8123213,19.7738841 C18.1488514,19.7738841 17.6079679,19.9857101 17.1893574,20.4089565 C16.7695984,20.8328116 16.5606586,21.380029 16.5606586,22.0525362 L16.5606586,25.5293043 C16.5606586,26.2751594 16.751743,26.8609275 17.1328675,27.2870145 C17.5140964,27.7127971 18.0367068,27.925942 18.7002811,27.925942 C19.4382008,27.925942 19.9930763,27.724971 20.36449,27.3231304 C20.7361124,26.9216957 20.9214538,26.3234493 20.9214538,25.5293043 L20.9214538,24.9473913 L19.3962249,24.9473913 L19.3962249,25.4857826 C19.3962249,25.9418986 19.3470442,26.2367101 19.2494137,26.3702174 C19.1514699,26.5033188 18.9795984,26.5700725 18.734008,26.5700725 C18.4970843,26.5700725 18.3310602,26.4918551 18.2329076,26.3341014 C18.1349639,26.1763478 18.0863052,25.8937101 18.0863052,25.4864928 L18.0863052,24.0255217 L20.9218715,24.0245072 L20.9218715,24.0245072 Z M18.0865141,22.0378261 C18.0865141,21.7136957 18.1378876,21.4814783 18.2410522,21.340971 C18.3432771,21.2003623 18.5129558,21.1301594 18.7484177,21.1301594 C18.9741687,21.1301594 19.1378956,21.2003623 19.242,21.340971 C19.3442249,21.4814783 19.3964337,21.7136957 19.3964337,22.0378261 L19.3964337,22.822029 L18.0865141,22.822029 L18.0865141,22.0378261 L18.0865141,22.0378261 Z M19.5257028,3.4024058 L19.5257028,12.970087 L17.6948434,12.970087 L17.6948434,11.9138986 C17.3574699,12.3031594 17.0062088,12.5995942 16.6413735,12.8032029 C16.2764337,13.0064058 15.9217269,13.1083623 15.5786104,13.1083623 C15.1548835,13.1083623 14.8360964,12.9662319 14.6213092,12.6812609 C14.4062088,12.3965942 14.299494,11.969087 14.299494,11.3994493 L14.299494,3.4024058 L16.1306667,3.4024058 L16.1306667,10.7366812 C16.1306667,10.9636232 16.1681526,11.1275652 16.2455261,11.2291159 C16.3221687,11.3306667 16.4464257,11.3814928 16.6182972,11.3814928 C16.7533092,11.3814928 16.922988,11.3142319 17.1287952,11.1800145 C17.3342892,11.0453913 17.5225542,10.8738406 17.6948434,10.6648551 L17.6948434,3.4024058 L19.5257028,3.4024058 Z M7.43048193,5.58965217 C7.43048193,4.84866667 7.67680321,4.25873913 8.16986345,3.81956522 C8.66292369,3.38018841 9.32514056,3.16055072 10.1573494,3.16055072 C10.9148996,3.16055072 11.5358715,3.39226087 12.0196386,3.85537681 C12.5036145,4.31849275 12.7455502,4.91450725 12.7455502,5.64382609 L12.7455502,10.5853188 C12.7455502,11.4043188 12.5078956,12.0467971 12.0335261,12.5128551 C11.5591566,12.9790145 10.9057108,13.211942 10.073502,13.211942 C9.27251406,13.211942 8.63138956,12.9714058 8.15106827,12.4905362 C7.67032932,12.0095652 7.42995984,11.3624203 7.42995984,10.5496087 L7.43048193,5.58965217 Z M9.3146988,10.7287681 C9.3146988,10.9923333 9.37964659,11.1954348 9.51016867,11.3388841 C9.64058635,11.4824348 9.82665863,11.554058 10.069012,11.554058 C10.3172129,11.554058 10.5143534,11.4808116 10.6601205,11.3343188 C10.805992,11.1878261 10.8790843,10.9860435 10.8790843,10.7287681 L10.8790843,5.51792754 C10.8790843,5.30884058 10.8043213,5.13992754 10.6553173,5.01149275 C10.5066265,4.88295652 10.3111566,4.81843478 10.069012,4.81843478 C9.84545382,4.81843478 9.6639759,4.88295652 9.52416064,5.01149275 C9.38434538,5.13992754 9.3146988,5.30884058 9.3146988,5.51792754 L9.3146988,10.7287681 L9.3146988,10.7287681 Z M0.60897992,0 L2.68574297,0 L4.02364659,5.18436232 L4.1531245,5.18436232 L5.4288996,0 L7.52393574,0 L5.12441767,7.58830435 L5.12441767,12.970087 L3.06216867,12.970087 L3.06216867,7.83056522 L0.60897992,0 Z" id="Shape" sketch:type="MSShapeGroup"></path>
        </g>
    </g>
</svg>