<?xml version="1.0" encoding="UTF-8" standalone="no"?>
<svg width="24px" height="25px" viewBox="0 0 24 25" version="1.1" xmlns="http://www.w3.org/2000/svg" xmlns:xlink="http://www.w3.org/1999/xlink" xmlns:sketch="http://www.bohemiancoding.com/sketch/ns">
    <!-- Generator: Sketch 3.0.4 (8054) - http://www.bohemiancoding.com/sketch -->
    <title>youtube</title>
    <desc>Created with Sketch.</desc>
    <defs></defs>
    <g id="Page-1" stroke="none" stroke-width="1" fill="none" fill-rule="evenodd" sketch:type="MSPage">
        <g id="youtube" sketch:type="MSLayerGroup" transform="translate(2.907126, 0.607422)" fill="#3D3D3D">
            <path d="M4.64743978,14.4798781 L0.337800556,14.4798781 L0.337800556,15.7618964 L1.79056589,15.7618964 L1.79056589,23.3125269 L3.1948501,23.3125269 L3.1948501,15.7618964 L4.64743978,15.7618964 L4.64743978,14.4798781 L4.64743978,14.4798781 Z M6.94256485,21.7428566 C6.82566559,21.8852746 6.69708518,22.0022639 6.55717495,22.0935685 C6.41717689,22.1846171 6.30141939,22.23044 6.20928767,22.23044 C6.09238841,22.23044 6.00772208,22.1963074 5.95555216,22.1269331 C5.90338224,22.057644 5.87720946,21.9461159 5.87720946,21.7912395 L5.87720946,16.7961978 L4.63048895,16.7961978 L4.63048895,22.2427277 C4.63048895,22.6305587 4.70356196,22.9217093 4.84979582,23.1155822 C4.99594185,23.3093697 5.21340434,23.4062208 5.50148065,23.4062208 C5.73545483,23.4062208 5.97663092,23.3369317 6.22500891,23.1986949 C6.47382604,23.0597755 6.71280642,22.8578815 6.94256485,22.5927569 L6.94256485,23.3118443 L8.18946102,23.3118443 L8.18946102,16.7960271 L6.94256485,16.7960271 L6.94256485,21.7428566 L6.94256485,21.7428566 Z M11.7738154,16.7145357 C11.5805057,16.7145357 11.3893916,16.7660758 11.2002098,16.8691561 C11.0113793,16.9733457 10.8330882,17.1241262 10.6650729,17.3224363 L10.6650729,14.4798781 L9.40596864,14.4798781 L9.40596864,23.3127829 L10.6650729,23.3127829 L10.6650729,22.8119732 C10.8288724,23.0102833 11.0065487,23.1571385 11.1973115,23.2526243 C11.3884255,23.3474275 11.6057124,23.3951277 11.8495233,23.3951277 C12.2188406,23.3951277 12.5016473,23.2725065 12.6967136,23.0266669 C12.8919555,22.7806566 12.9896204,22.4264461 12.9896204,21.9628409 L12.9896204,18.3479485 C12.9896204,17.8159075 12.8855441,17.4102423 12.677567,17.1322327 C12.4696778,16.8538818 12.1683394,16.7145357 11.7738154,16.7145357 L11.7738154,16.7145357 Z M11.7061877,21.785693 C11.7061877,21.9933041 11.6700026,22.1430607 11.598247,22.2346212 C11.5263157,22.3260964 11.414247,22.3717487 11.2618652,22.3717487 C11.1559444,22.3717487 11.0553812,22.3486239 10.9601755,22.301777 C10.8647941,22.2551008 10.7663388,22.1786439 10.6650729,22.0724063 L10.6650729,18.0121697 C10.7498271,17.9224864 10.8352839,17.8563546 10.9223216,17.8135183 C11.0088323,17.7710232 11.0967483,17.7495197 11.1856303,17.7495197 C11.3546117,17.7495197 11.4838947,17.8065211 11.572689,17.9206944 C11.6620102,18.0346971 11.7062756,18.2013493 11.7062756,18.4209922 L11.7062756,21.785693 L11.7061877,21.785693 L11.7061877,21.785693 Z M17.5978753,20.2075748 L17.5978753,18.5489039 C17.5978753,17.9304222 17.4447031,17.4565772 17.138622,17.1266008 C16.8325409,16.7974778 16.394015,16.6322763 15.8234833,16.6322763 C15.2654233,16.6322763 14.8104735,16.8104481 14.4583705,17.1664506 C14.1053013,17.522965 13.9295572,17.9832423 13.9295572,18.5489039 L13.9295572,21.4732949 C13.9295572,22.100651 14.0902827,22.5933543 14.4108555,22.951746 C14.731516,23.3098817 15.1710959,23.4891629 15.7292437,23.4891629 C16.3499252,23.4891629 16.816644,23.3201214 17.1290487,22.9821239 C17.4416291,22.6444677 17.597524,22.1412687 17.597524,21.4732949 L17.597524,20.9838342 L16.3146183,20.9838342 L16.3146183,21.4366877 C16.3146183,21.8203375 16.2732513,22.0683104 16.1911319,22.1806065 C16.1087491,22.2925612 15.964184,22.3487093 15.7576122,22.3487093 C15.5583302,22.3487093 15.4186834,22.2829188 15.336125,22.1502285 C15.2537422,22.0175383 15.2128142,21.7798051 15.2128142,21.437285 L15.2128142,20.2084281 L17.5978753,20.2075748 L17.5978753,20.2075748 Z M15.2129899,18.5365308 C15.2129899,18.2638972 15.2562013,18.0685737 15.3429756,17.9503897 C15.4289593,17.8321205 15.57168,17.7730712 15.7697325,17.7730712 C15.959617,17.7730712 16.0973315,17.8321205 16.1848961,17.9503897 C16.2708799,18.0685737 16.314794,18.2638972 16.314794,18.5365308 L16.314794,19.1961422 L15.2129899,19.1961422 L15.2129899,18.5365308 L15.2129899,18.5365308 Z M16.4235252,2.86184308 L16.4235252,10.9094434 L14.8835465,10.9094434 L14.8835465,10.0210587 C14.5997738,10.3484751 14.3043199,10.5978133 13.9974484,10.7690733 C13.690489,10.9399921 13.3921368,11.0257501 13.1035335,11.0257501 C12.7471269,11.0257501 12.4789876,10.9062008 12.2983251,10.6665051 C12.1173991,10.4270653 12.0276388,10.0674789 12.0276388,9.58834335 L12.0276388,2.86184308 L13.5678809,2.86184308 L13.5678809,9.03087359 C13.5678809,9.22175983 13.5994112,9.35965531 13.6644919,9.445072 C13.7289577,9.53048869 13.8334732,9.5732397 13.9780384,9.5732397 C14.0916002,9.5732397 14.2343209,9.51666501 14.4074302,9.40377162 C14.5802759,9.29053691 14.7386301,9.14624158 14.8835465,8.97045898 L14.8835465,2.86184308 L16.4235252,2.86184308 Z M6.2499521,4.70158715 C6.2499521,4.07832691 6.45713869,3.58212507 6.87186319,3.21272562 C7.28658769,2.84315551 7.84359378,2.65841312 8.54358409,2.65841312 C9.18077728,2.65841312 9.70309126,2.85330994 10.1099991,3.24284759 C10.5170825,3.63238524 10.7205803,4.13370696 10.7205803,4.74715409 L10.7205803,8.9035592 C10.7205803,9.59243925 10.5206835,10.1328427 10.1216802,10.524855 C9.72267693,10.9169526 9.17304841,11.1128734 8.47305809,11.1128734 C7.7993284,11.1128734 7.26006359,10.9105527 6.85605413,10.5060821 C6.45169335,10.1015261 6.24951296,9.5571974 6.24951296,8.87352256 L6.2499521,4.70158715 Z M7.83481097,9.02421774 C7.83481097,9.24590861 7.88944007,9.41674199 7.99922525,9.53740053 C8.10892261,9.6581444 8.26543236,9.71838834 8.46928148,9.71838834 C8.67804898,9.71838834 8.84386852,9.65677909 8.96647661,9.53356061 C9.08917253,9.41034213 9.15065223,9.24061806 9.15065223,9.02421774 L9.15065223,4.64125788 C9.15065223,4.46538995 9.08776728,4.32331324 8.96243651,4.21528374 C8.83736924,4.10716891 8.67295495,4.05289817 8.46928148,4.05289817 C8.28124143,4.05289817 8.12859611,4.10716891 8.01099423,4.21528374 C7.89339234,4.32331324 7.83481097,4.46538995 7.83481097,4.64125788 L7.83481097,9.02421774 L7.83481097,9.02421774 Z M0.512227251,1.94289029e-16 L2.25904122,1.94289029e-16 L3.38438323,4.36068838 L3.49329013,4.36068838 L4.5663744,1.94289029e-16 L6.32855829,1.94289029e-16 L4.31026753,6.38270023 L4.31026753,10.9094434 L2.57566168,10.9094434 L2.57566168,6.58647151 L0.512227251,1.94289029e-16 Z" id="Shape" sketch:type="MSShapeGroup"></path>
        </g>
    </g>
</svg>